<?xml version="1.0" encoding="utf-8"?>
<svg xmlns="http://www.w3.org/2000/svg" xmlns:xlink="http://www.w3.org/1999/xlink" width="750" height="100">

  <g id="SRL">
    <g fill="none" stroke="black" stroke-width="1">
      <rect x="100" y="60" width="480" height="30" />
      <line x1="130" y1="60" x2="130" y2="90" />
      <line x1="160" y1="60" x2="160" y2="90" />
      <line x1="190" y1="60" x2="190" y2="90" />
      <line x1="220" y1="60" x2="220" y2="90" />
      <line x1="250" y1="60" x2="250" y2="90" />
      <line x1="280" y1="60" x2="280" y2="90" />
      <line x1="310" y1="60" x2="310" y2="90" />
      <line x1="340" y1="60" x2="340" y2="90" />
      <line x1="370" y1="60" x2="370" y2="90" />
      <line x1="400" y1="60" x2="400" y2="90" />
      <line x1="430" y1="60" x2="430" y2="90" />
      <line x1="460" y1="60" x2="460" y2="90" />
      <line x1="490" y1="60" x2="490" y2="90" />
      <line x1="520" y1="60" x2="520" y2="90" />
      <line x1="550" y1="60" x2="550" y2="90" />
      <rect x="620" y="60" width="30" height="30" />
    </g>
    <g>
      <g fill="none" stroke="black" stroke-width="2">
        <path d="M115,75 C180,0 50,50 100,75" />
        <path d="M90,70 L100,75 L90,80" transform="rotate(35,100,75)" />

        <line x1="115" y1="75" x2="550" y2="75" stroke-dasharray="5" />
        <path d="M540,70 L550,75 L540,80" />
        <path d="M610,70 L620,75 L610,80" />
        <line x1="565" y1="75" x2="620" y2="75" />
      </g>
      <circle cx="115" cy="75" r="5" fill="black" />
      <circle cx="565" cy="75" r="5" fill="black" />
    </g>
    <g font-family="monospace" font-size="10pt" fill="black" text-anchor="middle">
      <text x="115" y="55">15</text>
      <text x="145" y="55">14</text>
      <text x="175" y="55">13</text>
      <text x="205" y="55">12</text>
      <text x="235" y="55">11</text>
      <text x="265" y="55">10</text>
      <text x="295" y="55">9</text>
      <text x="325" y="55">8</text>
      <text x="355" y="55">7</text>
      <text x="385" y="55">6</text>
      <text x="415" y="55">5</text>
      <text x="445" y="55">4</text>
      <text x="475" y="55">3</text>
      <text x="505" y="55">2</text>
      <text x="535" y="55">1</text>
      <text x="565" y="55">0</text>
      <text x="635" y="55">OF</text>
    </g>
  </g>
</svg>
